<?xml version="1.0" encoding="utf-8"?>
<!-- Generator: Adobe Illustrator 16.0.0, SVG Export Plug-In . SVG Version: 6.00 Build 0)  -->
<!DOCTYPE svg PUBLIC "-//W3C//DTD SVG 1.1//EN" "http://www.w3.org/Graphics/SVG/1.1/DTD/svg11.dtd">
<svg version="1.1" id="Layer_1" xmlns="http://www.w3.org/2000/svg" xmlns:xlink="http://www.w3.org/1999/xlink" x="0px" y="0px"
	 width="595.279px" height="841.891px" viewBox="0 0 595.279 841.891" enable-background="new 0 0 595.279 841.891"
	 xml:space="preserve">
<g id="Suburb">
	<g>
		<path fill="#35393B" d="M220.254,389.991c-9.525,0-13.097,2.976-13.097,11.906c0,11.905,9.524,11.31,24.406,13.096
			c11.311,1.786,22.025,6.548,22.025,25.597c0,22.025-9.524,31.55-32.74,31.55c-23.812,0-31.55-11.905-31.55-27.383h17.263
			c0.596,7.144,3.572,11.311,14.883,11.311c10.119,0,14.882-4.167,14.882-15.478c0-11.31-13.691-11.31-23.812-12.5
			c-10.715-1.191-22.62-6.549-22.62-26.788c0-17.858,10.715-27.383,30.954-27.383c17.264,0,29.169,6.548,30.359,25.597h-17.263
			C233.35,392.372,229.183,389.991,220.254,389.991z"/>
		<path fill="#35393B" d="M323.832,471.544h-15.478l-0.595-7.738c-4.763,5.357-11.311,7.738-17.264,7.738
			c-11.905,0-23.811-6.548-23.811-28.573v-45.241h17.263v45.241c0,9.524,4.167,13.096,11.311,13.096
			c6.548,0,11.905-2.977,11.905-12.501v-45.836h17.264v73.814H323.832z"/>
		<path fill="#35393B" d="M339.31,442.971v-67.862h17.263v28.573c3.572-4.762,10.12-6.548,16.072-6.548
			c16.073,0,23.812,10.12,23.812,26.192v19.645c0,20.239-10.119,29.168-28.573,29.168C348.834,471.544,339.31,463.21,339.31,442.971
			z M356.573,425.112v17.858c0,8.929,2.381,14.286,11.311,14.286c6.548,0,11.311-3.571,11.311-14.286v-17.264
			c0-8.929-4.167-12.501-11.311-12.501C360.74,412.611,356.573,416.778,356.573,425.112z"/>
		<path fill="#35393B" d="M469.08,471.544h-15.477l-0.596-7.738c-4.763,5.357-11.311,7.738-17.263,7.738
			c-11.906,0-23.812-6.548-23.812-28.573v-45.241h16.668v45.241c0,9.524,4.167,13.096,11.311,13.096
			c6.548,0,11.905-2.977,11.905-12.501v-45.836h17.263V471.544z"/>
		<path fill="#35393B" d="M522.061,415.588c-11.311-1.786-19.645,2.977-19.645,13.691v42.265h-17.263v-73.814h15.477l0.596,7.738
			c2.977-5.357,11.311-9.524,20.239-8.334v18.454H522.061z"/>
		<path fill="#35393B" d="M532.776,442.971v-67.862h17.263v28.573c3.572-4.762,10.12-6.548,16.073-6.548
			c16.072,0,23.811,10.12,23.811,26.192v19.645c0,20.239-10.119,29.168-28.573,29.168C542.3,471.544,532.776,463.21,532.776,442.971
			z M550.038,425.112v17.858c0,8.929,2.382,14.286,11.311,14.286c6.548,0,11.311-3.571,11.311-14.286v-17.264
			c0-8.929-4.167-12.501-11.311-12.501C554.205,412.611,550.038,416.778,550.038,425.112z"/>
	</g>
</g>
<g id="U_1_">
	<g>
		<path fill="#35393B" d="M41.074,417.373c-21.431-21.43-20.835-42.265,0-63.1c22.025-22.025,42.265-21.43,63.695,0l47.026,47.027
			l-13.691,13.691l-50.003-50.003c-11.906-11.906-24.407-11.311-36.312,0.595c-15.478,15.478-8.929,26.788,4.167,39.884
			l45.241,45.241L87.506,464.4L41.074,417.373z"/>
	</g>
</g>
<g id="U">
	<g>
		<path fill="#35393B" d="M126.199,423.922c21.43,21.43,20.835,42.265,0,63.694c-22.025,22.025-42.86,22.025-64.29,0l-47.623-47.622
			l13.691-13.691l50.004,50.004c11.905,11.905,24.406,11.31,36.907-0.596c15.478-15.478,8.93-26.788-4.167-39.884l-45.836-45.836
			l13.691-13.692L126.199,423.922z"/>
	</g>
</g>
</svg>
