<?xml version="1.0" encoding="utf-8"?>
<!-- Generator: Adobe Illustrator 16.0.0, SVG Export Plug-In . SVG Version: 6.00 Build 0)  -->
<!DOCTYPE svg PUBLIC "-//W3C//DTD SVG 1.1//EN" "http://www.w3.org/Graphics/SVG/1.1/DTD/svg11.dtd">
<svg version="1.1" id="Layer_1" xmlns="http://www.w3.org/2000/svg" xmlns:xlink="http://www.w3.org/1999/xlink" x="0px" y="0px"
	 width="595.279px" height="841.891px" viewBox="0 0 595.279 841.891" enable-background="new 0 0 595.279 841.891"
	 xml:space="preserve">
<g>
	<g id="XMLID_1_">
		<g>
			<path fill="#FFFFFF" d="M575.575,332.618v19.705c0,20.256-10.06,29.213-28.524,29.213c-19.016-0.551-28.523-8.957-28.523-29.213
				v-67.795h17.225v28.523c3.582-4.823,10.059-6.614,16.122-6.614C567.859,306.437,575.575,316.633,575.575,332.618z
				 M558.351,352.322v-17.224c0-8.957-4.134-12.54-11.3-12.54c-7.165-0.551-11.299,3.583-11.299,11.851v17.913
				c0,8.957,2.343,14.331,11.299,14.331C553.665,366.653,558.351,363.071,558.351,352.322z"/>
			<path fill="#35393B" d="M507.78,324.901h-0.552v-0.138C507.365,324.901,507.504,324.901,507.78,324.901z"/>
			<path fill="#FFFFFF" d="M507.228,306.437v18.327c-11.023-1.516-19.016,3.307-19.016,13.78v42.303h-17.225v-73.721h15.434
				l0.551,7.716C489.865,309.468,498.272,305.334,507.228,306.437z"/>
			<path fill="#FFFFFF" d="M454.728,307.125v73.859h-15.434l-0.551-7.717c-4.823,5.374-11.3,7.717-17.225,7.717
				c-11.851,0-23.839-6.614-23.839-28.524v-45.335h16.674v45.197c0,9.508,4.134,13.091,11.299,13.091
				c6.614,0,11.851-3.031,11.851-12.54v-45.748H454.728z"/>
			<path fill="#FFFFFF" d="M382.109,332.618v19.705c0,20.256-10.059,29.213-28.523,29.213c-19.016-0.551-28.523-8.957-28.523-29.213
				v-67.795h17.224v28.523c3.583-4.823,10.06-6.614,16.123-6.614C374.393,306.437,382.109,316.633,382.109,332.618z
				 M364.884,352.322v-17.224c0-8.957-4.134-12.54-11.299-12.54c-7.165-0.551-11.3,3.583-11.3,11.851v17.913
				c0,8.957,2.343,14.331,11.3,14.331C360.199,366.653,364.884,363.071,364.884,352.322z"/>
			<path fill="#FFFFFF" d="M310.179,307.125v73.859h-0.551h-15.433l-0.552-7.717c-4.685,5.374-11.299,7.717-17.225,7.717
				c-11.851,0-23.839-6.614-23.839-28.524v-45.335h17.225v45.197c0,9.508,4.134,13.091,11.3,13.091
				c6.614,0,11.851-3.031,11.851-12.54v-45.748H310.179z"/>
			<path fill="#FFFFFF" d="M236.872,308.917h-17.225c-0.552-7.166-4.823-9.508-13.643-9.508c-9.508,0-13.09,3.032-13.09,11.851
				c0,11.851,9.508,11.299,24.39,13.09c11.299,1.792,22.047,6.614,22.047,25.63c0,22.047-9.508,31.555-32.795,31.555
				c-23.839,0-31.556-11.851-31.556-27.421h17.225c0.551,7.166,3.583,11.299,14.882,11.299c10.06,0,14.882-4.134,14.882-15.433
				s-13.642-11.299-23.838-12.54c-10.749-1.24-22.599-6.614-22.599-26.732c0-17.914,10.748-27.421,31.004-27.421
				C223.781,283.287,235.77,289.763,236.872,308.917z"/>
			<path fill="#FFFFFF" d="M137.521,310.708l-13.642,13.642l-50.021-50.02c-11.988-11.85-24.527-11.299-36.378,0.551
				c-15.434,15.433-8.957,26.732,4.134,39.961l45.197,45.197L73.17,373.681l-46.438-46.988c-21.358-21.358-20.808-42.166,0-63.111
				c22.047-22.047,42.304-21.496,63.662,0L137.521,310.708z"/>
			<path fill="#FFFFFF" d="M111.891,333.307c21.496,21.358,20.807,42.303,0,63.662c-22.048,22.047-42.854,22.047-64.213,0L0,349.291
				l13.642-13.642l50.021,50.02c11.85,11.851,24.39,11.3,36.929-0.551c15.434-15.434,8.957-26.732-4.134-39.823l-45.886-45.886
				l13.642-13.642L111.891,333.307z"/>
		</g>
	</g>
</g>
</svg>
